M48
; DRILL file {KiCad 8.0.4} date 2025-07-19T03:22:26+1000
; FORMAT={-:-/ absolute / inch / decimal}
; #@! TF.CreationDate,2025-07-19T03:22:26+10:00
; #@! TF.GenerationSoftware,Kicad,Pcbnew,8.0.4
; #@! TF.FileFunction,Plated,1,2,PTH
FMAT,2
INCH
; #@! TA.AperFunction,Plated,PTH,ComponentDrill
T1C0.0276
; #@! TA.AperFunction,Plated,PTH,ComponentDrill
T2C0.0315
; #@! TA.AperFunction,Plated,PTH,ComponentDrill
T3C0.0354
; #@! TA.AperFunction,Plated,PTH,ComponentDrill
T4C0.0394
%
G90
G05
T1
X4.4957Y-2.5276
X4.4957Y-2.6516
X4.4957Y-2.7756
X4.4957Y-2.8996
X4.4957Y-3.0236
X4.4957Y-3.1476
X4.4957Y-3.2717
X4.4957Y-3.3957
X4.4957Y-3.5197
X4.524Y-2.3228
X4.724Y-2.3228
X4.7957Y-2.5276
X4.7957Y-2.6516
X4.7957Y-2.7756
X4.7957Y-2.8996
X4.7957Y-3.0236
X4.7957Y-3.1476
X4.7957Y-3.2717
X4.7957Y-3.3957
X4.7957Y-3.5197
X5.4984Y-2.4276
X5.5984Y-2.3276
X5.5984Y-2.5276
X5.7283Y-2.665
X5.7283Y-2.965
T2
X4.9291Y-3.4724
X4.9291Y-3.5724
X4.9291Y-3.6724
X4.9291Y-3.7724
X4.9803Y-2.3016
X4.9803Y-2.4016
X4.9803Y-2.5016
X4.9803Y-2.6016
X4.9803Y-2.7016
X4.9803Y-2.8016
X4.9803Y-2.9016
X4.9803Y-3.0016
X5.2291Y-3.4724
X5.2291Y-3.5724
X5.2291Y-3.6724
X5.2291Y-3.7724
X5.2803Y-2.3016
X5.2803Y-2.4016
X5.2803Y-2.5016
X5.2803Y-2.6016
X5.2803Y-2.7016
X5.2803Y-2.8016
X5.2803Y-2.9016
X5.2803Y-3.0016
X5.5906Y-3.1693
X5.689Y-3.1693
T3
X3.8961Y-2.3937
X3.8961Y-2.6969
X3.8961Y-2.9921
X3.8961Y-3.3071
X3.8961Y-3.6417
X3.9961Y-2.3937
X3.9961Y-2.6969
X3.9961Y-2.9921
X3.9961Y-3.3071
X3.9961Y-3.6417
X4.2215Y-2.3937
X4.2215Y-2.6969
X4.2215Y-2.9921
X4.2215Y-3.3071
X4.2215Y-3.6417
X4.3215Y-2.3937
X4.3215Y-2.6969
X4.3215Y-2.9921
X4.3215Y-3.3071
X4.3215Y-3.6417
T4
X5.1378Y-3.2677
X5.3346Y-3.2677
T4
G00X5.374Y-3.7303
M15
G01X5.374Y-3.7894
M16
G05
G00X5.5118Y-3.4843
M15
G01X5.5906Y-3.4843
M16
G05
G00X5.5256Y-3.7205
M15
G01X5.5768Y-3.7205
M16
G05
G00X5.7283Y-3.7303
M15
G01X5.7283Y-3.7894
M16
G05
M30
