%TF.GenerationSoftware,KiCad,Pcbnew,8.0.4*%
%TF.CreationDate,2025-07-19T03:21:48+10:00*%
%TF.ProjectId,new ki cad,6e657720-6b69-4206-9361-642e6b696361,rev?*%
%TF.SameCoordinates,Original*%
%TF.FileFunction,Legend,Top*%
%TF.FilePolarity,Positive*%
%FSLAX46Y46*%
G04 Gerber Fmt 4.6, Leading zero omitted, Abs format (unit mm)*
G04 Created by KiCad (PCBNEW 8.0.4) date 2025-07-19 03:21:48*
%MOMM*%
%LPD*%
G01*
G04 APERTURE LIST*
%ADD10C,0.150000*%
%ADD11C,0.120000*%
%ADD12C,0.000000*%
G04 APERTURE END LIST*
D10*
X140214285Y-86131009D02*
X140357142Y-86178628D01*
X140357142Y-86178628D02*
X140404761Y-86226247D01*
X140404761Y-86226247D02*
X140452380Y-86321485D01*
X140452380Y-86321485D02*
X140452380Y-86464342D01*
X140452380Y-86464342D02*
X140404761Y-86559580D01*
X140404761Y-86559580D02*
X140357142Y-86607200D01*
X140357142Y-86607200D02*
X140261904Y-86654819D01*
X140261904Y-86654819D02*
X139880952Y-86654819D01*
X139880952Y-86654819D02*
X139880952Y-85654819D01*
X139880952Y-85654819D02*
X140214285Y-85654819D01*
X140214285Y-85654819D02*
X140309523Y-85702438D01*
X140309523Y-85702438D02*
X140357142Y-85750057D01*
X140357142Y-85750057D02*
X140404761Y-85845295D01*
X140404761Y-85845295D02*
X140404761Y-85940533D01*
X140404761Y-85940533D02*
X140357142Y-86035771D01*
X140357142Y-86035771D02*
X140309523Y-86083390D01*
X140309523Y-86083390D02*
X140214285Y-86131009D01*
X140214285Y-86131009D02*
X139880952Y-86131009D01*
X140738095Y-85654819D02*
X141309523Y-85654819D01*
X141023809Y-86654819D02*
X141023809Y-85654819D01*
X142166666Y-86654819D02*
X141595238Y-86654819D01*
X141880952Y-86654819D02*
X141880952Y-85654819D01*
X141880952Y-85654819D02*
X141785714Y-85797676D01*
X141785714Y-85797676D02*
X141690476Y-85892914D01*
X141690476Y-85892914D02*
X141595238Y-85940533D01*
X143083333Y-76459580D02*
X143035714Y-76507200D01*
X143035714Y-76507200D02*
X142892857Y-76554819D01*
X142892857Y-76554819D02*
X142797619Y-76554819D01*
X142797619Y-76554819D02*
X142654762Y-76507200D01*
X142654762Y-76507200D02*
X142559524Y-76411961D01*
X142559524Y-76411961D02*
X142511905Y-76316723D01*
X142511905Y-76316723D02*
X142464286Y-76126247D01*
X142464286Y-76126247D02*
X142464286Y-75983390D01*
X142464286Y-75983390D02*
X142511905Y-75792914D01*
X142511905Y-75792914D02*
X142559524Y-75697676D01*
X142559524Y-75697676D02*
X142654762Y-75602438D01*
X142654762Y-75602438D02*
X142797619Y-75554819D01*
X142797619Y-75554819D02*
X142892857Y-75554819D01*
X142892857Y-75554819D02*
X143035714Y-75602438D01*
X143035714Y-75602438D02*
X143083333Y-75650057D01*
X144035714Y-76554819D02*
X143464286Y-76554819D01*
X143750000Y-76554819D02*
X143750000Y-75554819D01*
X143750000Y-75554819D02*
X143654762Y-75697676D01*
X143654762Y-75697676D02*
X143559524Y-75792914D01*
X143559524Y-75792914D02*
X143464286Y-75840533D01*
X107756905Y-65994819D02*
X107756905Y-64994819D01*
X107756905Y-64994819D02*
X107995000Y-64994819D01*
X107995000Y-64994819D02*
X108137857Y-65042438D01*
X108137857Y-65042438D02*
X108233095Y-65137676D01*
X108233095Y-65137676D02*
X108280714Y-65232914D01*
X108280714Y-65232914D02*
X108328333Y-65423390D01*
X108328333Y-65423390D02*
X108328333Y-65566247D01*
X108328333Y-65566247D02*
X108280714Y-65756723D01*
X108280714Y-65756723D02*
X108233095Y-65851961D01*
X108233095Y-65851961D02*
X108137857Y-65947200D01*
X108137857Y-65947200D02*
X107995000Y-65994819D01*
X107995000Y-65994819D02*
X107756905Y-65994819D01*
X108661667Y-64994819D02*
X109328333Y-64994819D01*
X109328333Y-64994819D02*
X108899762Y-65994819D01*
X132803333Y-81579580D02*
X132755714Y-81627200D01*
X132755714Y-81627200D02*
X132612857Y-81674819D01*
X132612857Y-81674819D02*
X132517619Y-81674819D01*
X132517619Y-81674819D02*
X132374762Y-81627200D01*
X132374762Y-81627200D02*
X132279524Y-81531961D01*
X132279524Y-81531961D02*
X132231905Y-81436723D01*
X132231905Y-81436723D02*
X132184286Y-81246247D01*
X132184286Y-81246247D02*
X132184286Y-81103390D01*
X132184286Y-81103390D02*
X132231905Y-80912914D01*
X132231905Y-80912914D02*
X132279524Y-80817676D01*
X132279524Y-80817676D02*
X132374762Y-80722438D01*
X132374762Y-80722438D02*
X132517619Y-80674819D01*
X132517619Y-80674819D02*
X132612857Y-80674819D01*
X132612857Y-80674819D02*
X132755714Y-80722438D01*
X132755714Y-80722438D02*
X132803333Y-80770057D01*
X133184286Y-80770057D02*
X133231905Y-80722438D01*
X133231905Y-80722438D02*
X133327143Y-80674819D01*
X133327143Y-80674819D02*
X133565238Y-80674819D01*
X133565238Y-80674819D02*
X133660476Y-80722438D01*
X133660476Y-80722438D02*
X133708095Y-80770057D01*
X133708095Y-80770057D02*
X133755714Y-80865295D01*
X133755714Y-80865295D02*
X133755714Y-80960533D01*
X133755714Y-80960533D02*
X133708095Y-81103390D01*
X133708095Y-81103390D02*
X133136667Y-81674819D01*
X133136667Y-81674819D02*
X133755714Y-81674819D01*
X141557142Y-57054819D02*
X141223809Y-56578628D01*
X140985714Y-57054819D02*
X140985714Y-56054819D01*
X140985714Y-56054819D02*
X141366666Y-56054819D01*
X141366666Y-56054819D02*
X141461904Y-56102438D01*
X141461904Y-56102438D02*
X141509523Y-56150057D01*
X141509523Y-56150057D02*
X141557142Y-56245295D01*
X141557142Y-56245295D02*
X141557142Y-56388152D01*
X141557142Y-56388152D02*
X141509523Y-56483390D01*
X141509523Y-56483390D02*
X141461904Y-56531009D01*
X141461904Y-56531009D02*
X141366666Y-56578628D01*
X141366666Y-56578628D02*
X140985714Y-56578628D01*
X142509523Y-57054819D02*
X141938095Y-57054819D01*
X142223809Y-57054819D02*
X142223809Y-56054819D01*
X142223809Y-56054819D02*
X142128571Y-56197676D01*
X142128571Y-56197676D02*
X142033333Y-56292914D01*
X142033333Y-56292914D02*
X141938095Y-56340533D01*
X143461904Y-57054819D02*
X142890476Y-57054819D01*
X143176190Y-57054819D02*
X143176190Y-56054819D01*
X143176190Y-56054819D02*
X143080952Y-56197676D01*
X143080952Y-56197676D02*
X142985714Y-56292914D01*
X142985714Y-56292914D02*
X142890476Y-56340533D01*
X107756905Y-81494819D02*
X107756905Y-80494819D01*
X107756905Y-80494819D02*
X107995000Y-80494819D01*
X107995000Y-80494819D02*
X108137857Y-80542438D01*
X108137857Y-80542438D02*
X108233095Y-80637676D01*
X108233095Y-80637676D02*
X108280714Y-80732914D01*
X108280714Y-80732914D02*
X108328333Y-80923390D01*
X108328333Y-80923390D02*
X108328333Y-81066247D01*
X108328333Y-81066247D02*
X108280714Y-81256723D01*
X108280714Y-81256723D02*
X108233095Y-81351961D01*
X108233095Y-81351961D02*
X108137857Y-81447200D01*
X108137857Y-81447200D02*
X107995000Y-81494819D01*
X107995000Y-81494819D02*
X107756905Y-81494819D01*
X108804524Y-81494819D02*
X108995000Y-81494819D01*
X108995000Y-81494819D02*
X109090238Y-81447200D01*
X109090238Y-81447200D02*
X109137857Y-81399580D01*
X109137857Y-81399580D02*
X109233095Y-81256723D01*
X109233095Y-81256723D02*
X109280714Y-81066247D01*
X109280714Y-81066247D02*
X109280714Y-80685295D01*
X109280714Y-80685295D02*
X109233095Y-80590057D01*
X109233095Y-80590057D02*
X109185476Y-80542438D01*
X109185476Y-80542438D02*
X109090238Y-80494819D01*
X109090238Y-80494819D02*
X108899762Y-80494819D01*
X108899762Y-80494819D02*
X108804524Y-80542438D01*
X108804524Y-80542438D02*
X108756905Y-80590057D01*
X108756905Y-80590057D02*
X108709286Y-80685295D01*
X108709286Y-80685295D02*
X108709286Y-80923390D01*
X108709286Y-80923390D02*
X108756905Y-81018628D01*
X108756905Y-81018628D02*
X108804524Y-81066247D01*
X108804524Y-81066247D02*
X108899762Y-81113866D01*
X108899762Y-81113866D02*
X109090238Y-81113866D01*
X109090238Y-81113866D02*
X109185476Y-81066247D01*
X109185476Y-81066247D02*
X109233095Y-81018628D01*
X109233095Y-81018628D02*
X109280714Y-80923390D01*
X99491905Y-81494819D02*
X99491905Y-80494819D01*
X99491905Y-80494819D02*
X99730000Y-80494819D01*
X99730000Y-80494819D02*
X99872857Y-80542438D01*
X99872857Y-80542438D02*
X99968095Y-80637676D01*
X99968095Y-80637676D02*
X100015714Y-80732914D01*
X100015714Y-80732914D02*
X100063333Y-80923390D01*
X100063333Y-80923390D02*
X100063333Y-81066247D01*
X100063333Y-81066247D02*
X100015714Y-81256723D01*
X100015714Y-81256723D02*
X99968095Y-81351961D01*
X99968095Y-81351961D02*
X99872857Y-81447200D01*
X99872857Y-81447200D02*
X99730000Y-81494819D01*
X99730000Y-81494819D02*
X99491905Y-81494819D01*
X100920476Y-80828152D02*
X100920476Y-81494819D01*
X100682381Y-80447200D02*
X100444286Y-81161485D01*
X100444286Y-81161485D02*
X101063333Y-81161485D01*
X99491905Y-58294819D02*
X99491905Y-57294819D01*
X99491905Y-57294819D02*
X99730000Y-57294819D01*
X99730000Y-57294819D02*
X99872857Y-57342438D01*
X99872857Y-57342438D02*
X99968095Y-57437676D01*
X99968095Y-57437676D02*
X100015714Y-57532914D01*
X100015714Y-57532914D02*
X100063333Y-57723390D01*
X100063333Y-57723390D02*
X100063333Y-57866247D01*
X100063333Y-57866247D02*
X100015714Y-58056723D01*
X100015714Y-58056723D02*
X99968095Y-58151961D01*
X99968095Y-58151961D02*
X99872857Y-58247200D01*
X99872857Y-58247200D02*
X99730000Y-58294819D01*
X99730000Y-58294819D02*
X99491905Y-58294819D01*
X101015714Y-58294819D02*
X100444286Y-58294819D01*
X100730000Y-58294819D02*
X100730000Y-57294819D01*
X100730000Y-57294819D02*
X100634762Y-57437676D01*
X100634762Y-57437676D02*
X100539524Y-57532914D01*
X100539524Y-57532914D02*
X100444286Y-57580533D01*
X99491905Y-65994819D02*
X99491905Y-64994819D01*
X99491905Y-64994819D02*
X99730000Y-64994819D01*
X99730000Y-64994819D02*
X99872857Y-65042438D01*
X99872857Y-65042438D02*
X99968095Y-65137676D01*
X99968095Y-65137676D02*
X100015714Y-65232914D01*
X100015714Y-65232914D02*
X100063333Y-65423390D01*
X100063333Y-65423390D02*
X100063333Y-65566247D01*
X100063333Y-65566247D02*
X100015714Y-65756723D01*
X100015714Y-65756723D02*
X99968095Y-65851961D01*
X99968095Y-65851961D02*
X99872857Y-65947200D01*
X99872857Y-65947200D02*
X99730000Y-65994819D01*
X99730000Y-65994819D02*
X99491905Y-65994819D01*
X100444286Y-65090057D02*
X100491905Y-65042438D01*
X100491905Y-65042438D02*
X100587143Y-64994819D01*
X100587143Y-64994819D02*
X100825238Y-64994819D01*
X100825238Y-64994819D02*
X100920476Y-65042438D01*
X100920476Y-65042438D02*
X100968095Y-65090057D01*
X100968095Y-65090057D02*
X101015714Y-65185295D01*
X101015714Y-65185295D02*
X101015714Y-65280533D01*
X101015714Y-65280533D02*
X100968095Y-65423390D01*
X100968095Y-65423390D02*
X100396667Y-65994819D01*
X100396667Y-65994819D02*
X101015714Y-65994819D01*
X99491905Y-73494819D02*
X99491905Y-72494819D01*
X99491905Y-72494819D02*
X99730000Y-72494819D01*
X99730000Y-72494819D02*
X99872857Y-72542438D01*
X99872857Y-72542438D02*
X99968095Y-72637676D01*
X99968095Y-72637676D02*
X100015714Y-72732914D01*
X100015714Y-72732914D02*
X100063333Y-72923390D01*
X100063333Y-72923390D02*
X100063333Y-73066247D01*
X100063333Y-73066247D02*
X100015714Y-73256723D01*
X100015714Y-73256723D02*
X99968095Y-73351961D01*
X99968095Y-73351961D02*
X99872857Y-73447200D01*
X99872857Y-73447200D02*
X99730000Y-73494819D01*
X99730000Y-73494819D02*
X99491905Y-73494819D01*
X100396667Y-72494819D02*
X101015714Y-72494819D01*
X101015714Y-72494819D02*
X100682381Y-72875771D01*
X100682381Y-72875771D02*
X100825238Y-72875771D01*
X100825238Y-72875771D02*
X100920476Y-72923390D01*
X100920476Y-72923390D02*
X100968095Y-72971009D01*
X100968095Y-72971009D02*
X101015714Y-73066247D01*
X101015714Y-73066247D02*
X101015714Y-73304342D01*
X101015714Y-73304342D02*
X100968095Y-73399580D01*
X100968095Y-73399580D02*
X100920476Y-73447200D01*
X100920476Y-73447200D02*
X100825238Y-73494819D01*
X100825238Y-73494819D02*
X100539524Y-73494819D01*
X100539524Y-73494819D02*
X100444286Y-73447200D01*
X100444286Y-73447200D02*
X100396667Y-73399580D01*
X128208095Y-89314819D02*
X128208095Y-90124342D01*
X128208095Y-90124342D02*
X128255714Y-90219580D01*
X128255714Y-90219580D02*
X128303333Y-90267200D01*
X128303333Y-90267200D02*
X128398571Y-90314819D01*
X128398571Y-90314819D02*
X128589047Y-90314819D01*
X128589047Y-90314819D02*
X128684285Y-90267200D01*
X128684285Y-90267200D02*
X128731904Y-90219580D01*
X128731904Y-90219580D02*
X128779523Y-90124342D01*
X128779523Y-90124342D02*
X128779523Y-89314819D01*
X129208095Y-89410057D02*
X129255714Y-89362438D01*
X129255714Y-89362438D02*
X129350952Y-89314819D01*
X129350952Y-89314819D02*
X129589047Y-89314819D01*
X129589047Y-89314819D02*
X129684285Y-89362438D01*
X129684285Y-89362438D02*
X129731904Y-89410057D01*
X129731904Y-89410057D02*
X129779523Y-89505295D01*
X129779523Y-89505295D02*
X129779523Y-89600533D01*
X129779523Y-89600533D02*
X129731904Y-89743390D01*
X129731904Y-89743390D02*
X129160476Y-90314819D01*
X129160476Y-90314819D02*
X129779523Y-90314819D01*
X107756905Y-58294819D02*
X107756905Y-57294819D01*
X107756905Y-57294819D02*
X107995000Y-57294819D01*
X107995000Y-57294819D02*
X108137857Y-57342438D01*
X108137857Y-57342438D02*
X108233095Y-57437676D01*
X108233095Y-57437676D02*
X108280714Y-57532914D01*
X108280714Y-57532914D02*
X108328333Y-57723390D01*
X108328333Y-57723390D02*
X108328333Y-57866247D01*
X108328333Y-57866247D02*
X108280714Y-58056723D01*
X108280714Y-58056723D02*
X108233095Y-58151961D01*
X108233095Y-58151961D02*
X108137857Y-58247200D01*
X108137857Y-58247200D02*
X107995000Y-58294819D01*
X107995000Y-58294819D02*
X107756905Y-58294819D01*
X109185476Y-57294819D02*
X108995000Y-57294819D01*
X108995000Y-57294819D02*
X108899762Y-57342438D01*
X108899762Y-57342438D02*
X108852143Y-57390057D01*
X108852143Y-57390057D02*
X108756905Y-57532914D01*
X108756905Y-57532914D02*
X108709286Y-57723390D01*
X108709286Y-57723390D02*
X108709286Y-58104342D01*
X108709286Y-58104342D02*
X108756905Y-58199580D01*
X108756905Y-58199580D02*
X108804524Y-58247200D01*
X108804524Y-58247200D02*
X108899762Y-58294819D01*
X108899762Y-58294819D02*
X109090238Y-58294819D01*
X109090238Y-58294819D02*
X109185476Y-58247200D01*
X109185476Y-58247200D02*
X109233095Y-58199580D01*
X109233095Y-58199580D02*
X109280714Y-58104342D01*
X109280714Y-58104342D02*
X109280714Y-57866247D01*
X109280714Y-57866247D02*
X109233095Y-57771009D01*
X109233095Y-57771009D02*
X109185476Y-57723390D01*
X109185476Y-57723390D02*
X109090238Y-57675771D01*
X109090238Y-57675771D02*
X108899762Y-57675771D01*
X108899762Y-57675771D02*
X108804524Y-57723390D01*
X108804524Y-57723390D02*
X108756905Y-57771009D01*
X108756905Y-57771009D02*
X108709286Y-57866247D01*
X99491905Y-89994819D02*
X99491905Y-88994819D01*
X99491905Y-88994819D02*
X99730000Y-88994819D01*
X99730000Y-88994819D02*
X99872857Y-89042438D01*
X99872857Y-89042438D02*
X99968095Y-89137676D01*
X99968095Y-89137676D02*
X100015714Y-89232914D01*
X100015714Y-89232914D02*
X100063333Y-89423390D01*
X100063333Y-89423390D02*
X100063333Y-89566247D01*
X100063333Y-89566247D02*
X100015714Y-89756723D01*
X100015714Y-89756723D02*
X99968095Y-89851961D01*
X99968095Y-89851961D02*
X99872857Y-89947200D01*
X99872857Y-89947200D02*
X99730000Y-89994819D01*
X99730000Y-89994819D02*
X99491905Y-89994819D01*
X100968095Y-88994819D02*
X100491905Y-88994819D01*
X100491905Y-88994819D02*
X100444286Y-89471009D01*
X100444286Y-89471009D02*
X100491905Y-89423390D01*
X100491905Y-89423390D02*
X100587143Y-89375771D01*
X100587143Y-89375771D02*
X100825238Y-89375771D01*
X100825238Y-89375771D02*
X100920476Y-89423390D01*
X100920476Y-89423390D02*
X100968095Y-89471009D01*
X100968095Y-89471009D02*
X101015714Y-89566247D01*
X101015714Y-89566247D02*
X101015714Y-89804342D01*
X101015714Y-89804342D02*
X100968095Y-89899580D01*
X100968095Y-89899580D02*
X100920476Y-89947200D01*
X100920476Y-89947200D02*
X100825238Y-89994819D01*
X100825238Y-89994819D02*
X100587143Y-89994819D01*
X100587143Y-89994819D02*
X100491905Y-89947200D01*
X100491905Y-89947200D02*
X100444286Y-89899580D01*
X144034819Y-72095238D02*
X143558628Y-72428571D01*
X144034819Y-72666666D02*
X143034819Y-72666666D01*
X143034819Y-72666666D02*
X143034819Y-72285714D01*
X143034819Y-72285714D02*
X143082438Y-72190476D01*
X143082438Y-72190476D02*
X143130057Y-72142857D01*
X143130057Y-72142857D02*
X143225295Y-72095238D01*
X143225295Y-72095238D02*
X143368152Y-72095238D01*
X143368152Y-72095238D02*
X143463390Y-72142857D01*
X143463390Y-72142857D02*
X143511009Y-72190476D01*
X143511009Y-72190476D02*
X143558628Y-72285714D01*
X143558628Y-72285714D02*
X143558628Y-72666666D01*
X143034819Y-71809523D02*
X144034819Y-71476190D01*
X144034819Y-71476190D02*
X143034819Y-71142857D01*
X144034819Y-70285714D02*
X144034819Y-70857142D01*
X144034819Y-70571428D02*
X143034819Y-70571428D01*
X143034819Y-70571428D02*
X143177676Y-70666666D01*
X143177676Y-70666666D02*
X143272914Y-70761904D01*
X143272914Y-70761904D02*
X143320533Y-70857142D01*
X129548095Y-55584819D02*
X129548095Y-56394342D01*
X129548095Y-56394342D02*
X129595714Y-56489580D01*
X129595714Y-56489580D02*
X129643333Y-56537200D01*
X129643333Y-56537200D02*
X129738571Y-56584819D01*
X129738571Y-56584819D02*
X129929047Y-56584819D01*
X129929047Y-56584819D02*
X130024285Y-56537200D01*
X130024285Y-56537200D02*
X130071904Y-56489580D01*
X130071904Y-56489580D02*
X130119523Y-56394342D01*
X130119523Y-56394342D02*
X130119523Y-55584819D01*
X130500476Y-55584819D02*
X131119523Y-55584819D01*
X131119523Y-55584819D02*
X130786190Y-55965771D01*
X130786190Y-55965771D02*
X130929047Y-55965771D01*
X130929047Y-55965771D02*
X131024285Y-56013390D01*
X131024285Y-56013390D02*
X131071904Y-56061009D01*
X131071904Y-56061009D02*
X131119523Y-56156247D01*
X131119523Y-56156247D02*
X131119523Y-56394342D01*
X131119523Y-56394342D02*
X131071904Y-56489580D01*
X131071904Y-56489580D02*
X131024285Y-56537200D01*
X131024285Y-56537200D02*
X130929047Y-56584819D01*
X130929047Y-56584819D02*
X130643333Y-56584819D01*
X130643333Y-56584819D02*
X130548095Y-56537200D01*
X130548095Y-56537200D02*
X130500476Y-56489580D01*
X107756905Y-73494819D02*
X107756905Y-72494819D01*
X107756905Y-72494819D02*
X107995000Y-72494819D01*
X107995000Y-72494819D02*
X108137857Y-72542438D01*
X108137857Y-72542438D02*
X108233095Y-72637676D01*
X108233095Y-72637676D02*
X108280714Y-72732914D01*
X108280714Y-72732914D02*
X108328333Y-72923390D01*
X108328333Y-72923390D02*
X108328333Y-73066247D01*
X108328333Y-73066247D02*
X108280714Y-73256723D01*
X108280714Y-73256723D02*
X108233095Y-73351961D01*
X108233095Y-73351961D02*
X108137857Y-73447200D01*
X108137857Y-73447200D02*
X107995000Y-73494819D01*
X107995000Y-73494819D02*
X107756905Y-73494819D01*
X108899762Y-72923390D02*
X108804524Y-72875771D01*
X108804524Y-72875771D02*
X108756905Y-72828152D01*
X108756905Y-72828152D02*
X108709286Y-72732914D01*
X108709286Y-72732914D02*
X108709286Y-72685295D01*
X108709286Y-72685295D02*
X108756905Y-72590057D01*
X108756905Y-72590057D02*
X108804524Y-72542438D01*
X108804524Y-72542438D02*
X108899762Y-72494819D01*
X108899762Y-72494819D02*
X109090238Y-72494819D01*
X109090238Y-72494819D02*
X109185476Y-72542438D01*
X109185476Y-72542438D02*
X109233095Y-72590057D01*
X109233095Y-72590057D02*
X109280714Y-72685295D01*
X109280714Y-72685295D02*
X109280714Y-72732914D01*
X109280714Y-72732914D02*
X109233095Y-72828152D01*
X109233095Y-72828152D02*
X109185476Y-72875771D01*
X109185476Y-72875771D02*
X109090238Y-72923390D01*
X109090238Y-72923390D02*
X108899762Y-72923390D01*
X108899762Y-72923390D02*
X108804524Y-72971009D01*
X108804524Y-72971009D02*
X108756905Y-73018628D01*
X108756905Y-73018628D02*
X108709286Y-73113866D01*
X108709286Y-73113866D02*
X108709286Y-73304342D01*
X108709286Y-73304342D02*
X108756905Y-73399580D01*
X108756905Y-73399580D02*
X108804524Y-73447200D01*
X108804524Y-73447200D02*
X108899762Y-73494819D01*
X108899762Y-73494819D02*
X109090238Y-73494819D01*
X109090238Y-73494819D02*
X109185476Y-73447200D01*
X109185476Y-73447200D02*
X109233095Y-73399580D01*
X109233095Y-73399580D02*
X109280714Y-73304342D01*
X109280714Y-73304342D02*
X109280714Y-73113866D01*
X109280714Y-73113866D02*
X109233095Y-73018628D01*
X109233095Y-73018628D02*
X109185476Y-72971009D01*
X109185476Y-72971009D02*
X109090238Y-72923390D01*
X107280714Y-89994819D02*
X107280714Y-88994819D01*
X107280714Y-88994819D02*
X107518809Y-88994819D01*
X107518809Y-88994819D02*
X107661666Y-89042438D01*
X107661666Y-89042438D02*
X107756904Y-89137676D01*
X107756904Y-89137676D02*
X107804523Y-89232914D01*
X107804523Y-89232914D02*
X107852142Y-89423390D01*
X107852142Y-89423390D02*
X107852142Y-89566247D01*
X107852142Y-89566247D02*
X107804523Y-89756723D01*
X107804523Y-89756723D02*
X107756904Y-89851961D01*
X107756904Y-89851961D02*
X107661666Y-89947200D01*
X107661666Y-89947200D02*
X107518809Y-89994819D01*
X107518809Y-89994819D02*
X107280714Y-89994819D01*
X108804523Y-89994819D02*
X108233095Y-89994819D01*
X108518809Y-89994819D02*
X108518809Y-88994819D01*
X108518809Y-88994819D02*
X108423571Y-89137676D01*
X108423571Y-89137676D02*
X108328333Y-89232914D01*
X108328333Y-89232914D02*
X108233095Y-89280533D01*
X109423571Y-88994819D02*
X109518809Y-88994819D01*
X109518809Y-88994819D02*
X109614047Y-89042438D01*
X109614047Y-89042438D02*
X109661666Y-89090057D01*
X109661666Y-89090057D02*
X109709285Y-89185295D01*
X109709285Y-89185295D02*
X109756904Y-89375771D01*
X109756904Y-89375771D02*
X109756904Y-89613866D01*
X109756904Y-89613866D02*
X109709285Y-89804342D01*
X109709285Y-89804342D02*
X109661666Y-89899580D01*
X109661666Y-89899580D02*
X109614047Y-89947200D01*
X109614047Y-89947200D02*
X109518809Y-89994819D01*
X109518809Y-89994819D02*
X109423571Y-89994819D01*
X109423571Y-89994819D02*
X109328333Y-89947200D01*
X109328333Y-89947200D02*
X109280714Y-89899580D01*
X109280714Y-89899580D02*
X109233095Y-89804342D01*
X109233095Y-89804342D02*
X109185476Y-89613866D01*
X109185476Y-89613866D02*
X109185476Y-89375771D01*
X109185476Y-89375771D02*
X109233095Y-89185295D01*
X109233095Y-89185295D02*
X109280714Y-89090057D01*
X109280714Y-89090057D02*
X109328333Y-89042438D01*
X109328333Y-89042438D02*
X109423571Y-88994819D01*
D11*
%TO.C,BT1*%
X135890000Y-87390000D02*
X138700000Y-87390000D01*
X135890000Y-93450000D02*
X135890000Y-87390000D01*
X140000000Y-87200000D02*
X142000000Y-87200000D01*
X143300000Y-87390000D02*
X146110000Y-87390000D01*
X146110000Y-87390000D02*
X146110000Y-93450000D01*
X146110000Y-98500000D02*
X135890000Y-98500000D01*
%TO.C,R6*%
X115130000Y-76800000D02*
X116080000Y-76800000D01*
X116080000Y-75880000D02*
X116080000Y-77720000D01*
X116080000Y-77720000D02*
X119920000Y-77720000D01*
X119920000Y-75880000D02*
X116080000Y-75880000D01*
X119920000Y-77720000D02*
X119920000Y-75880000D01*
X120870000Y-76800000D02*
X119920000Y-76800000D01*
%TO.C,R8*%
X115130000Y-70500000D02*
X116080000Y-70500000D01*
X116080000Y-69580000D02*
X116080000Y-71420000D01*
X116080000Y-71420000D02*
X119920000Y-71420000D01*
X119920000Y-69580000D02*
X116080000Y-69580000D01*
X119920000Y-71420000D02*
X119920000Y-69580000D01*
X120870000Y-70500000D02*
X119920000Y-70500000D01*
%TO.C,R5*%
X115130000Y-79950000D02*
X116080000Y-79950000D01*
X116080000Y-79030000D02*
X116080000Y-80870000D01*
X116080000Y-80870000D02*
X119920000Y-80870000D01*
X119920000Y-79030000D02*
X116080000Y-79030000D01*
X119920000Y-80870000D02*
X119920000Y-79030000D01*
X120870000Y-79950000D02*
X119920000Y-79950000D01*
%TO.C,R10*%
X115130000Y-64200000D02*
X116080000Y-64200000D01*
X116080000Y-63280000D02*
X116080000Y-65120000D01*
X116080000Y-65120000D02*
X119920000Y-65120000D01*
X119920000Y-63280000D02*
X116080000Y-63280000D01*
X119920000Y-65120000D02*
X119920000Y-63280000D01*
X120870000Y-64200000D02*
X119920000Y-64200000D01*
%TO.C,C1*%
X139749759Y-78661000D02*
X140379759Y-78661000D01*
X140064759Y-78346000D02*
X140064759Y-78976000D01*
X143250000Y-77270000D02*
X143250000Y-83730000D01*
X143290000Y-77270000D02*
X143290000Y-83730000D01*
X143330000Y-77270000D02*
X143330000Y-83730000D01*
X143370000Y-77272000D02*
X143370000Y-83728000D01*
X143410000Y-77273000D02*
X143410000Y-83727000D01*
X143450000Y-77276000D02*
X143450000Y-83724000D01*
X143490000Y-77278000D02*
X143490000Y-79460000D01*
X143490000Y-81540000D02*
X143490000Y-83722000D01*
X143530000Y-77282000D02*
X143530000Y-79460000D01*
X143530000Y-81540000D02*
X143530000Y-83718000D01*
X143570000Y-77285000D02*
X143570000Y-79460000D01*
X143570000Y-81540000D02*
X143570000Y-83715000D01*
X143610000Y-77289000D02*
X143610000Y-79460000D01*
X143610000Y-81540000D02*
X143610000Y-83711000D01*
X143650000Y-77294000D02*
X143650000Y-79460000D01*
X143650000Y-81540000D02*
X143650000Y-83706000D01*
X143690000Y-77299000D02*
X143690000Y-79460000D01*
X143690000Y-81540000D02*
X143690000Y-83701000D01*
X143730000Y-77305000D02*
X143730000Y-79460000D01*
X143730000Y-81540000D02*
X143730000Y-83695000D01*
X143770000Y-77311000D02*
X143770000Y-79460000D01*
X143770000Y-81540000D02*
X143770000Y-83689000D01*
X143810000Y-77318000D02*
X143810000Y-79460000D01*
X143810000Y-81540000D02*
X143810000Y-83682000D01*
X143850000Y-77325000D02*
X143850000Y-79460000D01*
X143850000Y-81540000D02*
X143850000Y-83675000D01*
X143890000Y-77333000D02*
X143890000Y-79460000D01*
X143890000Y-81540000D02*
X143890000Y-83667000D01*
X143930000Y-77341000D02*
X143930000Y-79460000D01*
X143930000Y-81540000D02*
X143930000Y-83659000D01*
X143971000Y-77350000D02*
X143971000Y-79460000D01*
X143971000Y-81540000D02*
X143971000Y-83650000D01*
X144011000Y-77359000D02*
X144011000Y-79460000D01*
X144011000Y-81540000D02*
X144011000Y-83641000D01*
X144051000Y-77369000D02*
X144051000Y-79460000D01*
X144051000Y-81540000D02*
X144051000Y-83631000D01*
X144091000Y-77379000D02*
X144091000Y-79460000D01*
X144091000Y-81540000D02*
X144091000Y-83621000D01*
X144131000Y-77390000D02*
X144131000Y-79460000D01*
X144131000Y-81540000D02*
X144131000Y-83610000D01*
X144171000Y-77402000D02*
X144171000Y-79460000D01*
X144171000Y-81540000D02*
X144171000Y-83598000D01*
X144211000Y-77414000D02*
X144211000Y-79460000D01*
X144211000Y-81540000D02*
X144211000Y-83586000D01*
X144251000Y-77426000D02*
X144251000Y-79460000D01*
X144251000Y-81540000D02*
X144251000Y-83574000D01*
X144291000Y-77439000D02*
X144291000Y-79460000D01*
X144291000Y-81540000D02*
X144291000Y-83561000D01*
X144331000Y-77453000D02*
X144331000Y-79460000D01*
X144331000Y-81540000D02*
X144331000Y-83547000D01*
X144371000Y-77467000D02*
X144371000Y-79460000D01*
X144371000Y-81540000D02*
X144371000Y-83533000D01*
X144411000Y-77482000D02*
X144411000Y-79460000D01*
X144411000Y-81540000D02*
X144411000Y-83518000D01*
X144451000Y-77498000D02*
X144451000Y-79460000D01*
X144451000Y-81540000D02*
X144451000Y-83502000D01*
X144491000Y-77514000D02*
X144491000Y-79460000D01*
X144491000Y-81540000D02*
X144491000Y-83486000D01*
X144531000Y-77530000D02*
X144531000Y-79460000D01*
X144531000Y-81540000D02*
X144531000Y-83470000D01*
X144571000Y-77548000D02*
X144571000Y-79460000D01*
X144571000Y-81540000D02*
X144571000Y-83452000D01*
X144611000Y-77566000D02*
X144611000Y-79460000D01*
X144611000Y-81540000D02*
X144611000Y-83434000D01*
X144651000Y-77584000D02*
X144651000Y-79460000D01*
X144651000Y-81540000D02*
X144651000Y-83416000D01*
X144691000Y-77604000D02*
X144691000Y-79460000D01*
X144691000Y-81540000D02*
X144691000Y-83396000D01*
X144731000Y-77624000D02*
X144731000Y-79460000D01*
X144731000Y-81540000D02*
X144731000Y-83376000D01*
X144771000Y-77644000D02*
X144771000Y-79460000D01*
X144771000Y-81540000D02*
X144771000Y-83356000D01*
X144811000Y-77666000D02*
X144811000Y-79460000D01*
X144811000Y-81540000D02*
X144811000Y-83334000D01*
X144851000Y-77688000D02*
X144851000Y-79460000D01*
X144851000Y-81540000D02*
X144851000Y-83312000D01*
X144891000Y-77710000D02*
X144891000Y-79460000D01*
X144891000Y-81540000D02*
X144891000Y-83290000D01*
X144931000Y-77734000D02*
X144931000Y-79460000D01*
X144931000Y-81540000D02*
X144931000Y-83266000D01*
X144971000Y-77758000D02*
X144971000Y-79460000D01*
X144971000Y-81540000D02*
X144971000Y-83242000D01*
X145011000Y-77784000D02*
X145011000Y-79460000D01*
X145011000Y-81540000D02*
X145011000Y-83216000D01*
X145051000Y-77810000D02*
X145051000Y-79460000D01*
X145051000Y-81540000D02*
X145051000Y-83190000D01*
X145091000Y-77836000D02*
X145091000Y-79460000D01*
X145091000Y-81540000D02*
X145091000Y-83164000D01*
X145131000Y-77864000D02*
X145131000Y-79460000D01*
X145131000Y-81540000D02*
X145131000Y-83136000D01*
X145171000Y-77893000D02*
X145171000Y-79460000D01*
X145171000Y-81540000D02*
X145171000Y-83107000D01*
X145211000Y-77922000D02*
X145211000Y-79460000D01*
X145211000Y-81540000D02*
X145211000Y-83078000D01*
X145251000Y-77952000D02*
X145251000Y-79460000D01*
X145251000Y-81540000D02*
X145251000Y-83048000D01*
X145291000Y-77984000D02*
X145291000Y-79460000D01*
X145291000Y-81540000D02*
X145291000Y-83016000D01*
X145331000Y-78016000D02*
X145331000Y-79460000D01*
X145331000Y-81540000D02*
X145331000Y-82984000D01*
X145371000Y-78050000D02*
X145371000Y-79460000D01*
X145371000Y-81540000D02*
X145371000Y-82950000D01*
X145411000Y-78084000D02*
X145411000Y-79460000D01*
X145411000Y-81540000D02*
X145411000Y-82916000D01*
X145451000Y-78120000D02*
X145451000Y-79460000D01*
X145451000Y-81540000D02*
X145451000Y-82880000D01*
X145491000Y-78157000D02*
X145491000Y-79460000D01*
X145491000Y-81540000D02*
X145491000Y-82843000D01*
X145531000Y-78195000D02*
X145531000Y-79460000D01*
X145531000Y-81540000D02*
X145531000Y-82805000D01*
X145571000Y-78235000D02*
X145571000Y-82765000D01*
X145611000Y-78276000D02*
X145611000Y-82724000D01*
X145651000Y-78318000D02*
X145651000Y-82682000D01*
X145691000Y-78363000D02*
X145691000Y-82637000D01*
X145731000Y-78408000D02*
X145731000Y-82592000D01*
X145771000Y-78456000D02*
X145771000Y-82544000D01*
X145811000Y-78505000D02*
X145811000Y-82495000D01*
X145851000Y-78556000D02*
X145851000Y-82444000D01*
X145891000Y-78610000D02*
X145891000Y-82390000D01*
X145931000Y-78666000D02*
X145931000Y-82334000D01*
X145971000Y-78724000D02*
X145971000Y-82276000D01*
X146011000Y-78786000D02*
X146011000Y-82214000D01*
X146051000Y-78850000D02*
X146051000Y-82150000D01*
X146091000Y-78919000D02*
X146091000Y-82081000D01*
X146131000Y-78991000D02*
X146131000Y-82009000D01*
X146171000Y-79068000D02*
X146171000Y-81932000D01*
X146211000Y-79150000D02*
X146211000Y-81850000D01*
X146251000Y-79238000D02*
X146251000Y-81762000D01*
X146291000Y-79335000D02*
X146291000Y-81665000D01*
X146331000Y-79441000D02*
X146331000Y-81559000D01*
X146371000Y-79560000D02*
X146371000Y-81440000D01*
X146411000Y-79698000D02*
X146411000Y-81302000D01*
X146451000Y-79867000D02*
X146451000Y-81133000D01*
X146491000Y-80098000D02*
X146491000Y-80902000D01*
X146520000Y-80500000D02*
G75*
G02*
X139980000Y-80500000I-3270000J0D01*
G01*
X139980000Y-80500000D02*
G75*
G02*
X146520000Y-80500000I3270000J0D01*
G01*
%TO.C,R3*%
X115130000Y-86250000D02*
X116080000Y-86250000D01*
X116080000Y-85330000D02*
X116080000Y-87170000D01*
X116080000Y-87170000D02*
X119920000Y-87170000D01*
X119920000Y-85330000D02*
X116080000Y-85330000D01*
X119920000Y-87170000D02*
X119920000Y-85330000D01*
X120870000Y-86250000D02*
X119920000Y-86250000D01*
%TO.C,D7*%
X106935000Y-67264000D02*
X106935000Y-67420000D01*
X106935000Y-69580000D02*
X106935000Y-69736000D01*
X106935000Y-67264484D02*
G75*
G02*
X110167335Y-67421392I1560000J-1235516D01*
G01*
X107454039Y-67420000D02*
G75*
G02*
X109536130Y-67420163I1040961J-1080000D01*
G01*
X109536130Y-69579837D02*
G75*
G02*
X107454039Y-69580000I-1041130J1079837D01*
G01*
X110167335Y-69578608D02*
G75*
G02*
X106935000Y-69735516I-1672335J1078608D01*
G01*
%TO.C,C2*%
X128380000Y-80380000D02*
X128380000Y-85620000D01*
X128380000Y-80380000D02*
X137620000Y-80380000D01*
X128380000Y-85620000D02*
X137620000Y-85620000D01*
X137620000Y-80380000D02*
X137620000Y-85620000D01*
%TO.C,R11*%
X146130000Y-61660000D02*
G75*
G02*
X138270000Y-61660000I-3930000J0D01*
G01*
X138270000Y-61660000D02*
G75*
G02*
X146130000Y-61660000I3930000J0D01*
G01*
%TO.C,R1*%
X115130000Y-89400000D02*
X116080000Y-89400000D01*
X116080000Y-88480000D02*
X116080000Y-90320000D01*
X116080000Y-90320000D02*
X119920000Y-90320000D01*
X119920000Y-88480000D02*
X116080000Y-88480000D01*
X119920000Y-90320000D02*
X119920000Y-88480000D01*
X120870000Y-89400000D02*
X119920000Y-89400000D01*
%TO.C,D9*%
X106935000Y-82764000D02*
X106935000Y-82920000D01*
X106935000Y-85080000D02*
X106935000Y-85236000D01*
X106935000Y-82764484D02*
G75*
G02*
X110167335Y-82921392I1560000J-1235516D01*
G01*
X107454039Y-82920000D02*
G75*
G02*
X109536130Y-82920163I1040961J-1080000D01*
G01*
X109536130Y-85079837D02*
G75*
G02*
X107454039Y-85080000I-1041130J1079837D01*
G01*
X110167335Y-85078608D02*
G75*
G02*
X106935000Y-85235516I-1672335J1078608D01*
G01*
%TO.C,D4*%
X98670000Y-82764000D02*
X98670000Y-82920000D01*
X98670000Y-85080000D02*
X98670000Y-85236000D01*
X98670000Y-82764484D02*
G75*
G02*
X101902335Y-82921392I1560000J-1235516D01*
G01*
X99189039Y-82920000D02*
G75*
G02*
X101271130Y-82920163I1040961J-1080000D01*
G01*
X101271130Y-85079837D02*
G75*
G02*
X99189039Y-85080000I-1041130J1079837D01*
G01*
X101902335Y-85078608D02*
G75*
G02*
X98670000Y-85235516I-1672335J1078608D01*
G01*
%TO.C,D1*%
X98670000Y-59564000D02*
X98670000Y-59720000D01*
X98670000Y-61880000D02*
X98670000Y-62036000D01*
X98670000Y-59564484D02*
G75*
G02*
X101902335Y-59721392I1560000J-1235516D01*
G01*
X99189039Y-59720000D02*
G75*
G02*
X101271130Y-59720163I1040961J-1080000D01*
G01*
X101271130Y-61879837D02*
G75*
G02*
X99189039Y-61880000I-1041130J1079837D01*
G01*
X101902335Y-61878608D02*
G75*
G02*
X98670000Y-62035516I-1672335J1078608D01*
G01*
%TO.C,R4*%
X115130000Y-83100000D02*
X116080000Y-83100000D01*
X116080000Y-82180000D02*
X116080000Y-84020000D01*
X116080000Y-84020000D02*
X119920000Y-84020000D01*
X119920000Y-82180000D02*
X116080000Y-82180000D01*
X119920000Y-84020000D02*
X119920000Y-82180000D01*
X120870000Y-83100000D02*
X119920000Y-83100000D01*
%TO.C,D2*%
X98670000Y-67264000D02*
X98670000Y-67420000D01*
X98670000Y-69580000D02*
X98670000Y-69736000D01*
X98670000Y-67264484D02*
G75*
G02*
X101902335Y-67421392I1560000J-1235516D01*
G01*
X99189039Y-67420000D02*
G75*
G02*
X101271130Y-67420163I1040961J-1080000D01*
G01*
X101271130Y-69579837D02*
G75*
G02*
X99189039Y-69580000I-1041130J1079837D01*
G01*
X101902335Y-69578608D02*
G75*
G02*
X98670000Y-69735516I-1672335J1078608D01*
G01*
%TO.C,D3*%
X98670000Y-74764000D02*
X98670000Y-74920000D01*
X98670000Y-77080000D02*
X98670000Y-77236000D01*
X98670000Y-74764484D02*
G75*
G02*
X101902335Y-74921392I1560000J-1235516D01*
G01*
X99189039Y-74920000D02*
G75*
G02*
X101271130Y-74920163I1040961J-1080000D01*
G01*
X101271130Y-77079837D02*
G75*
G02*
X99189039Y-77080000I-1041130J1079837D01*
G01*
X101902335Y-77078608D02*
G75*
G02*
X98670000Y-77235516I-1672335J1078608D01*
G01*
%TO.C,U2*%
X126360000Y-86870000D02*
X126360000Y-97150000D01*
X126360000Y-97150000D02*
X131660000Y-97150000D01*
X128010000Y-86870000D02*
X126360000Y-86870000D01*
X131660000Y-86870000D02*
X130010000Y-86870000D01*
X131660000Y-97150000D02*
X131660000Y-86870000D01*
X130010000Y-86870000D02*
G75*
G02*
X128010000Y-86870000I-1000000J0D01*
G01*
%TO.C,D6*%
X106935000Y-59564000D02*
X106935000Y-59720000D01*
X106935000Y-61880000D02*
X106935000Y-62036000D01*
X106935000Y-59564484D02*
G75*
G02*
X110167335Y-59721392I1560000J-1235516D01*
G01*
X107454039Y-59720000D02*
G75*
G02*
X109536130Y-59720163I1040961J-1080000D01*
G01*
X109536130Y-61879837D02*
G75*
G02*
X107454039Y-61880000I-1041130J1079837D01*
G01*
X110167335Y-61878608D02*
G75*
G02*
X106935000Y-62035516I-1672335J1078608D01*
G01*
%TO.C,D5*%
X98670000Y-91264000D02*
X98670000Y-91420000D01*
X98670000Y-93580000D02*
X98670000Y-93736000D01*
X98670000Y-91264484D02*
G75*
G02*
X101902335Y-91421392I1560000J-1235516D01*
G01*
X99189039Y-91420000D02*
G75*
G02*
X101271130Y-91420163I1040961J-1080000D01*
G01*
X101271130Y-93579837D02*
G75*
G02*
X99189039Y-93580000I-1041130J1079837D01*
G01*
X101902335Y-93578608D02*
G75*
G02*
X98670000Y-93735516I-1672335J1078608D01*
G01*
%TO.C,RV1*%
X144580000Y-69580000D02*
X144580000Y-73420000D01*
X144580000Y-73420000D02*
X146420000Y-73420000D01*
X145500000Y-68630000D02*
X145500000Y-69580000D01*
X145500000Y-74370000D02*
X145500000Y-73420000D01*
X146420000Y-69580000D02*
X144580000Y-69580000D01*
X146420000Y-73420000D02*
X146420000Y-69580000D01*
%TO.C,U3*%
X128060000Y-57130000D02*
X128060000Y-77570000D01*
X128060000Y-77570000D02*
X132560000Y-77570000D01*
X129310000Y-57130000D02*
X128060000Y-57130000D01*
X132560000Y-57130000D02*
X131310000Y-57130000D01*
X132560000Y-77570000D02*
X132560000Y-57130000D01*
X131310000Y-57130000D02*
G75*
G02*
X129310000Y-57130000I-1000000J0D01*
G01*
%TO.C,R2*%
X120910000Y-59000000D02*
G75*
G02*
X119070000Y-59000000I-920000J0D01*
G01*
X119070000Y-59000000D02*
G75*
G02*
X120910000Y-59000000I920000J0D01*
G01*
X119070000Y-59000000D02*
X115910000Y-59000000D01*
%TO.C,D8*%
X106935000Y-74764000D02*
X106935000Y-74920000D01*
X106935000Y-77080000D02*
X106935000Y-77236000D01*
X106935000Y-74764484D02*
G75*
G02*
X110167335Y-74921392I1560000J-1235516D01*
G01*
X107454039Y-74920000D02*
G75*
G02*
X109536130Y-74920163I1040961J-1080000D01*
G01*
X109536130Y-77079837D02*
G75*
G02*
X107454039Y-77080000I-1041130J1079837D01*
G01*
X110167335Y-77078608D02*
G75*
G02*
X106935000Y-77235516I-1672335J1078608D01*
G01*
%TO.C,R7*%
X115130000Y-73650000D02*
X116080000Y-73650000D01*
X116080000Y-72730000D02*
X116080000Y-74570000D01*
X116080000Y-74570000D02*
X119920000Y-74570000D01*
X119920000Y-72730000D02*
X116080000Y-72730000D01*
X119920000Y-74570000D02*
X119920000Y-72730000D01*
X120870000Y-73650000D02*
X119920000Y-73650000D01*
%TO.C,R9*%
X115130000Y-67350000D02*
X116080000Y-67350000D01*
X116080000Y-66430000D02*
X116080000Y-68270000D01*
X116080000Y-68270000D02*
X119920000Y-68270000D01*
X119920000Y-66430000D02*
X116080000Y-66430000D01*
X119920000Y-68270000D02*
X119920000Y-66430000D01*
X120870000Y-67350000D02*
X119920000Y-67350000D01*
%TO.C,D10*%
X106935000Y-91264000D02*
X106935000Y-91420000D01*
X106935000Y-93580000D02*
X106935000Y-93736000D01*
X106935000Y-91264484D02*
G75*
G02*
X110167335Y-91421392I1560000J-1235516D01*
G01*
X107454039Y-91420000D02*
G75*
G02*
X109536130Y-91420163I1040961J-1080000D01*
G01*
X109536130Y-93579837D02*
G75*
G02*
X107454039Y-93580000I-1041130J1079837D01*
G01*
X110167335Y-93578608D02*
G75*
G02*
X106935000Y-93735516I-1672335J1078608D01*
G01*
D12*
%TO.C,G\u002A\u002A\u002A*%
G36*
X140195560Y-74095140D02*
G01*
X140275848Y-74175662D01*
X140299134Y-74271729D01*
X140318061Y-74341625D01*
X140387872Y-74370689D01*
X140399417Y-74372224D01*
X140479155Y-74396698D01*
X140515099Y-74430994D01*
X140502736Y-74454976D01*
X140440268Y-74469761D01*
X140318257Y-74476793D01*
X140208465Y-74477892D01*
X140115556Y-74477892D01*
X139886431Y-74477892D01*
X139886431Y-74344111D01*
X139895010Y-74272326D01*
X139981717Y-74272326D01*
X140007460Y-74333199D01*
X140090289Y-74364142D01*
X140115556Y-74365337D01*
X140201061Y-74345106D01*
X140222674Y-74290836D01*
X140177519Y-74212163D01*
X140165140Y-74199184D01*
X140109640Y-74149786D01*
X140070456Y-74153092D01*
X140022020Y-74197590D01*
X139981717Y-74272326D01*
X139895010Y-74272326D01*
X139904780Y-74190579D01*
X139961586Y-74099028D01*
X140059492Y-74065504D01*
X140072664Y-74065189D01*
X140195560Y-74095140D01*
G37*
G36*
X140196374Y-73388910D02*
G01*
X140229561Y-73413561D01*
X140284086Y-73452970D01*
X140334751Y-73446897D01*
X140390649Y-73413561D01*
X140474239Y-73363905D01*
X140513729Y-73359146D01*
X140524208Y-73398059D01*
X140524245Y-73402708D01*
X140493961Y-73451077D01*
X140418653Y-73508951D01*
X140392691Y-73523924D01*
X140300237Y-73587265D01*
X140280729Y-73636927D01*
X140333995Y-73670755D01*
X140405199Y-73683002D01*
X140500094Y-73704618D01*
X140522315Y-73743771D01*
X140499233Y-73777548D01*
X140452249Y-73789374D01*
X140350276Y-73798183D01*
X140213350Y-73802403D01*
X140180326Y-73802560D01*
X140160821Y-73802560D01*
X139886431Y-73802560D01*
X139886431Y-73650020D01*
X139892277Y-73577449D01*
X139980227Y-73577449D01*
X139996145Y-73648835D01*
X140058339Y-73679321D01*
X140086161Y-73683383D01*
X140160821Y-73684056D01*
X140183468Y-73647224D01*
X140179958Y-73589587D01*
X140156862Y-73511023D01*
X140098771Y-73484640D01*
X140074024Y-73483653D01*
X140002625Y-73499149D01*
X139980623Y-73560164D01*
X139980227Y-73577449D01*
X139892277Y-73577449D01*
X139895846Y-73533137D01*
X139919104Y-73438365D01*
X139925270Y-73424909D01*
X139993491Y-73367378D01*
X140093501Y-73355019D01*
X140196374Y-73388910D01*
G37*
G36*
X140309573Y-72488010D02*
G01*
X140416613Y-72555600D01*
X140490708Y-72656629D01*
X140520971Y-72777815D01*
X140496519Y-72905879D01*
X140439829Y-72993861D01*
X140315885Y-73090138D01*
X140195784Y-73112030D01*
X140182450Y-73114460D01*
X140048788Y-73065891D01*
X140010308Y-73037200D01*
X139912161Y-72935035D01*
X139875162Y-72832064D01*
X139877396Y-72812657D01*
X139971504Y-72812657D01*
X140009754Y-72910596D01*
X140089996Y-72977548D01*
X140195784Y-73000441D01*
X140310673Y-72966204D01*
X140321866Y-72959242D01*
X140396786Y-72872122D01*
X140412280Y-72764909D01*
X140368625Y-72662969D01*
X140318167Y-72617457D01*
X140199750Y-72576115D01*
X140087019Y-72597383D01*
X140002702Y-72675737D01*
X139991688Y-72696800D01*
X139971504Y-72812657D01*
X139877396Y-72812657D01*
X139890246Y-72701013D01*
X139893862Y-72686858D01*
X139963230Y-72562923D01*
X140040194Y-72506265D01*
X140180472Y-72467138D01*
X140309573Y-72488010D01*
G37*
G36*
X140253811Y-71888866D02*
G01*
X140371071Y-71899488D01*
X140455588Y-71919871D01*
X140479223Y-71934140D01*
X140520780Y-72022636D01*
X140507437Y-72126546D01*
X140455634Y-72202210D01*
X140381254Y-72256807D01*
X140343765Y-72249585D01*
X140336653Y-72208025D01*
X140356912Y-72158097D01*
X140374171Y-72151748D01*
X140405527Y-72123551D01*
X140409588Y-72064085D01*
X140388653Y-72011037D01*
X140364792Y-71997943D01*
X140303381Y-71995596D01*
X140194402Y-71993470D01*
X140102162Y-71992403D01*
X139969414Y-71985359D01*
X139901176Y-71965457D01*
X139886431Y-71939856D01*
X139920119Y-71913501D01*
X140006881Y-71896080D01*
X140125263Y-71887799D01*
X140253811Y-71888866D01*
G37*
G36*
X140504663Y-71198884D02*
G01*
X140521296Y-71274924D01*
X140524245Y-71363860D01*
X140524245Y-71551452D01*
X140205338Y-71551452D01*
X139886431Y-71551452D01*
X139886431Y-71363860D01*
X139894928Y-71245501D01*
X139915364Y-71185790D01*
X139940159Y-71189053D01*
X139961735Y-71259618D01*
X139968583Y-71316962D01*
X139985118Y-71412703D01*
X140020955Y-71452640D01*
X140055264Y-71457656D01*
X140111504Y-71438030D01*
X140138156Y-71367320D01*
X140142058Y-71335721D01*
X140158893Y-71252673D01*
X140184108Y-71214123D01*
X140186579Y-71213786D01*
X140212062Y-71246640D01*
X140230134Y-71326646D01*
X140231100Y-71335721D01*
X140251693Y-71424036D01*
X140298314Y-71456265D01*
X140317894Y-71457656D01*
X140370292Y-71441510D01*
X140396640Y-71380514D01*
X140404575Y-71316962D01*
X140426929Y-71212275D01*
X140469973Y-71176268D01*
X140470232Y-71176267D01*
X140504663Y-71198884D01*
G37*
G36*
X140066872Y-70365562D02*
G01*
X140060771Y-70420686D01*
X140014581Y-70511522D01*
X139989846Y-70548157D01*
X139963289Y-70635220D01*
X139994206Y-70718085D01*
X140065360Y-70785598D01*
X140159511Y-70826602D01*
X140259420Y-70829942D01*
X140347849Y-70784464D01*
X140350706Y-70781670D01*
X140397742Y-70694735D01*
X140409806Y-70586156D01*
X140384577Y-70493027D01*
X140369950Y-70474203D01*
X140340398Y-70413579D01*
X140342244Y-70390364D01*
X140373426Y-70365218D01*
X140419783Y-70393829D01*
X140467744Y-70460643D01*
X140503736Y-70550105D01*
X140510969Y-70583734D01*
X140517669Y-70682355D01*
X140489387Y-70756849D01*
X140419202Y-70836861D01*
X140330872Y-70908445D01*
X140249234Y-70948249D01*
X140229426Y-70951157D01*
X140084452Y-70921844D01*
X139971263Y-70844702D01*
X139897655Y-70735918D01*
X139871425Y-70611686D01*
X139900369Y-70488195D01*
X139965643Y-70403361D01*
X140034593Y-70356378D01*
X140066872Y-70365562D01*
G37*
G36*
X139955650Y-69663212D02*
G01*
X139968238Y-69722427D01*
X139980833Y-69766458D01*
X140014214Y-69793006D01*
X140085058Y-69807675D01*
X140210039Y-69816070D01*
X140252236Y-69817867D01*
X140384245Y-69827547D01*
X140480928Y-69842889D01*
X140523631Y-69860793D01*
X140524245Y-69863121D01*
X140489838Y-69881128D01*
X140399053Y-69896975D01*
X140270543Y-69907557D01*
X140252236Y-69908376D01*
X140110911Y-69916071D01*
X140027943Y-69928623D01*
X139986658Y-69951635D01*
X139970379Y-69990712D01*
X139968238Y-70003815D01*
X139948841Y-70079588D01*
X139925814Y-70089841D01*
X139904387Y-70043568D01*
X139889789Y-69949761D01*
X139886431Y-69863121D01*
X139893372Y-69742052D01*
X139910708Y-69662382D01*
X139933210Y-69633104D01*
X139955650Y-69663212D01*
G37*
G36*
X140372023Y-68979936D02*
G01*
X140449208Y-69037715D01*
X140511908Y-69143343D01*
X140516482Y-69259194D01*
X140465288Y-69353942D01*
X140403782Y-69401299D01*
X140371491Y-69412900D01*
X140338721Y-69388548D01*
X140351840Y-69330864D01*
X140392930Y-69276225D01*
X140442206Y-69211891D01*
X140434520Y-69151458D01*
X140412183Y-69112752D01*
X140359987Y-69078992D01*
X140298362Y-69108217D01*
X140239263Y-69191489D01*
X140209863Y-69264061D01*
X140149184Y-69365760D01*
X140065727Y-69409167D01*
X139979375Y-69397719D01*
X139910014Y-69334852D01*
X139877529Y-69224003D01*
X139877052Y-69206548D01*
X139897075Y-69109733D01*
X139945517Y-69031475D01*
X140003581Y-69000197D01*
X140032811Y-69030652D01*
X140036505Y-69056474D01*
X140014867Y-69106381D01*
X139996377Y-69112752D01*
X139966366Y-69139093D01*
X139969588Y-69198012D01*
X139998104Y-69259355D01*
X140043806Y-69292932D01*
X140093854Y-69278021D01*
X140133211Y-69203626D01*
X140147389Y-69156479D01*
X140203271Y-69027949D01*
X140279933Y-68968399D01*
X140372023Y-68979936D01*
G37*
G36*
X139032148Y-74392323D02*
G01*
X139180428Y-74508611D01*
X139290025Y-74681295D01*
X139340732Y-74858128D01*
X139355787Y-75063714D01*
X139333653Y-75259968D01*
X139315917Y-75322058D01*
X139217237Y-75496970D01*
X139065948Y-75628914D01*
X138996573Y-75664559D01*
X138886192Y-75705358D01*
X138826598Y-75701775D01*
X138802468Y-75644931D01*
X138798396Y-75549697D01*
X138805464Y-75439693D01*
X138832448Y-75382164D01*
X138874432Y-75359259D01*
X138977800Y-75289340D01*
X139039351Y-75163972D01*
X139054462Y-74992881D01*
X139053834Y-74982033D01*
X139035625Y-74856427D01*
X138992866Y-74775375D01*
X138943396Y-74730806D01*
X138865582Y-74683207D01*
X138800178Y-74682992D01*
X138740050Y-74708272D01*
X138682381Y-74748147D01*
X138633220Y-74814896D01*
X138583497Y-74924329D01*
X138530150Y-75074239D01*
X138458240Y-75276569D01*
X138394976Y-75419572D01*
X138331520Y-75516892D01*
X138259037Y-75582176D01*
X138171661Y-75627832D01*
X137992448Y-75668482D01*
X137826868Y-75642744D01*
X137682663Y-75559039D01*
X137567580Y-75425784D01*
X137489363Y-75251400D01*
X137455756Y-75044305D01*
X137466166Y-74860922D01*
X137512404Y-74717515D01*
X137597750Y-74582580D01*
X137705818Y-74474487D01*
X137820222Y-74411603D01*
X137874779Y-74402855D01*
X137935306Y-74409247D01*
X137963981Y-74441888D01*
X137972556Y-74520977D01*
X137972990Y-74571688D01*
X137965072Y-74684537D01*
X137938906Y-74735078D01*
X137918839Y-74740522D01*
X137842491Y-74773519D01*
X137786927Y-74858279D01*
X137756048Y-74973451D01*
X137753752Y-75097684D01*
X137783938Y-75209628D01*
X137822916Y-75265780D01*
X137924634Y-75333064D01*
X138020387Y-75325599D01*
X138110103Y-75243444D01*
X138193709Y-75086656D01*
X138249996Y-74927866D01*
X138325858Y-74708805D01*
X138402619Y-74552929D01*
X138488502Y-74448742D01*
X138591728Y-74384750D01*
X138653348Y-74363983D01*
X138854513Y-74343145D01*
X139032148Y-74392323D01*
G37*
G36*
X139323654Y-72656934D02*
G01*
X139323654Y-72824455D01*
X138939090Y-72835147D01*
X138554526Y-72845839D01*
X138554526Y-73258542D01*
X138554526Y-73671245D01*
X138939090Y-73681937D01*
X139323654Y-73692630D01*
X139323654Y-73860150D01*
X139323654Y-74027671D01*
X138404452Y-74027671D01*
X137485250Y-74027671D01*
X137485250Y-73858838D01*
X137485250Y-73690005D01*
X137860434Y-73690005D01*
X138235619Y-73690005D01*
X138235619Y-73258542D01*
X138235619Y-72827080D01*
X137860434Y-72827080D01*
X137485250Y-72827080D01*
X137485250Y-72658247D01*
X137485250Y-72489414D01*
X138404452Y-72489414D01*
X139323654Y-72489414D01*
X139323654Y-72656934D01*
G37*
G36*
X139323654Y-71870359D02*
G01*
X139323654Y-72039192D01*
X138404452Y-72039192D01*
X137485250Y-72039192D01*
X137485250Y-71870359D01*
X137485250Y-71701526D01*
X138404452Y-71701526D01*
X139323654Y-71701526D01*
X139323654Y-71870359D01*
G37*
G36*
X137578835Y-69575869D02*
G01*
X137686358Y-69612109D01*
X137843511Y-69668027D01*
X138040105Y-69739954D01*
X138265954Y-69824223D01*
X138443008Y-69891260D01*
X139304895Y-70219547D01*
X139316071Y-70454283D01*
X139320261Y-70583226D01*
X139312676Y-70657655D01*
X139286366Y-70697936D01*
X139234379Y-70724438D01*
X139222275Y-70729119D01*
X139008191Y-70810516D01*
X138775821Y-70898207D01*
X138535663Y-70988302D01*
X138298212Y-71076910D01*
X138073965Y-71160139D01*
X137873417Y-71234100D01*
X137707066Y-71294900D01*
X137585407Y-71338650D01*
X137518937Y-71361459D01*
X137509935Y-71363860D01*
X137495645Y-71330164D01*
X137486732Y-71244300D01*
X137485250Y-71182559D01*
X137485250Y-71001257D01*
X138188721Y-70745816D01*
X138405345Y-70666409D01*
X138597933Y-70594394D01*
X138755284Y-70534075D01*
X138866197Y-70489757D01*
X138919471Y-70465743D01*
X138921905Y-70464065D01*
X138897475Y-70444009D01*
X138812214Y-70403047D01*
X138676024Y-70345329D01*
X138498804Y-70275005D01*
X138290455Y-70196222D01*
X138227814Y-70173185D01*
X137504009Y-69908614D01*
X137492573Y-69735794D01*
X137492155Y-69621455D01*
X137512211Y-69569191D01*
X137531130Y-69562974D01*
X137578835Y-69575869D01*
G37*
G36*
X139315816Y-67908341D02*
G01*
X139322542Y-67994198D01*
X139323654Y-68055648D01*
X139323654Y-68236653D01*
X139145442Y-68291998D01*
X138967229Y-68347342D01*
X138967229Y-68757117D01*
X138967229Y-69166893D01*
X139136062Y-69229058D01*
X139238297Y-69271028D01*
X139289554Y-69315499D01*
X139309999Y-69388823D01*
X139316330Y-69464616D01*
X139316739Y-69579165D01*
X139296836Y-69630733D01*
X139278812Y-69635980D01*
X139231392Y-69622550D01*
X139124102Y-69585883D01*
X138967116Y-69529662D01*
X138770607Y-69457565D01*
X138614451Y-69399286D01*
X138544749Y-69373273D01*
X138366933Y-69306060D01*
X137504009Y-68978172D01*
X137492936Y-68770083D01*
X137492852Y-68768507D01*
X137916386Y-68768507D01*
X137959825Y-68791265D01*
X138054395Y-68831787D01*
X138180581Y-68882546D01*
X138318866Y-68936016D01*
X138449735Y-68984670D01*
X138553672Y-69020982D01*
X138611161Y-69037427D01*
X138614451Y-69037715D01*
X138631145Y-69003374D01*
X138643242Y-68913001D01*
X138648295Y-68785568D01*
X138648322Y-68775086D01*
X138644506Y-68629727D01*
X138631431Y-68546865D01*
X138606654Y-68514269D01*
X138595859Y-68512457D01*
X138535330Y-68524298D01*
X138432992Y-68555349D01*
X138306651Y-68598898D01*
X138174115Y-68648236D01*
X138053192Y-68696651D01*
X137961690Y-68737433D01*
X137917417Y-68763872D01*
X137916386Y-68768507D01*
X137492852Y-68768507D01*
X137481864Y-68561995D01*
X138384126Y-68218319D01*
X138628532Y-68125488D01*
X138849246Y-68042162D01*
X139036766Y-67971887D01*
X139181591Y-67918210D01*
X139274218Y-67884675D01*
X139305021Y-67874643D01*
X139315816Y-67908341D01*
G37*
%TD*%
M02*
