%TF.GenerationSoftware,KiCad,Pcbnew,8.0.4*%
%TF.CreationDate,2025-07-19T03:21:48+10:00*%
%TF.ProjectId,new ki cad,6e657720-6b69-4206-9361-642e6b696361,rev?*%
%TF.SameCoordinates,Original*%
%TF.FileFunction,Copper,L2,Bot*%
%TF.FilePolarity,Positive*%
%FSLAX46Y46*%
G04 Gerber Fmt 4.6, Leading zero omitted, Abs format (unit mm)*
G04 Created by KiCad (PCBNEW 8.0.4) date 2025-07-19 03:21:48*
%MOMM*%
%LPD*%
G01*
G04 APERTURE LIST*
%TA.AperFunction,ComponentPad*%
%ADD10R,4.000000X2.000000*%
%TD*%
%TA.AperFunction,ComponentPad*%
%ADD11O,3.300000X2.000000*%
%TD*%
%TA.AperFunction,ComponentPad*%
%ADD12O,2.000000X3.500000*%
%TD*%
%TA.AperFunction,ComponentPad*%
%ADD13C,1.400000*%
%TD*%
%TA.AperFunction,ComponentPad*%
%ADD14O,1.400000X1.400000*%
%TD*%
%TA.AperFunction,ComponentPad*%
%ADD15R,1.600000X1.600000*%
%TD*%
%TA.AperFunction,ComponentPad*%
%ADD16C,1.600000*%
%TD*%
%TA.AperFunction,ComponentPad*%
%ADD17R,1.800000X1.800000*%
%TD*%
%TA.AperFunction,ComponentPad*%
%ADD18C,1.800000*%
%TD*%
%TA.AperFunction,ComponentPad*%
%ADD19C,2.000000*%
%TD*%
%TA.AperFunction,ComponentPad*%
%ADD20C,1.260000*%
%TD*%
%TA.AperFunction,ComponentPad*%
%ADD21O,1.600000X1.600000*%
%TD*%
%TA.AperFunction,ComponentPad*%
%ADD22R,2.400000X1.600000*%
%TD*%
%TA.AperFunction,ComponentPad*%
%ADD23O,2.400000X1.600000*%
%TD*%
%TA.AperFunction,Conductor*%
%ADD24C,0.200000*%
%TD*%
G04 APERTURE END LIST*
D10*
%TO.P,BT1,1,+*%
%TO.N,Net-(BT1-+)*%
X141000000Y-88500000D03*
D11*
%TO.P,BT1,2,-*%
%TO.N,Net-(BT1--)*%
X141000000Y-94500000D03*
D12*
%TO.P,BT1,MP*%
%TO.N,N/C*%
X136500000Y-95500000D03*
X145500000Y-95500000D03*
%TD*%
D13*
%TO.P,R6,1*%
%TO.N,Net-(U3-6)*%
X121810000Y-76800000D03*
D14*
%TO.P,R6,2*%
%TO.N,Net-(D5-A)*%
X114190000Y-76800000D03*
%TD*%
D13*
%TO.P,R8,1*%
%TO.N,Net-(U3-8)*%
X121810000Y-70500000D03*
D14*
%TO.P,R8,2*%
%TO.N,Net-(D7-A)*%
X114190000Y-70500000D03*
%TD*%
D13*
%TO.P,R5,1*%
%TO.N,Net-(U3-5)*%
X121810000Y-79950000D03*
D14*
%TO.P,R5,2*%
%TO.N,Net-(D4-A)*%
X114190000Y-79950000D03*
%TD*%
D13*
%TO.P,R10,1*%
%TO.N,Net-(U2-Q)*%
X121810000Y-64200000D03*
D14*
%TO.P,R10,2*%
%TO.N,Net-(D10-A)*%
X114190000Y-64200000D03*
%TD*%
D15*
%TO.P,C1,1*%
%TO.N,Net-(C1-Pad1)*%
X142000000Y-80500000D03*
D16*
%TO.P,C1,2*%
%TO.N,Net-(BT1--)*%
X144500000Y-80500000D03*
%TD*%
D13*
%TO.P,R3,1*%
%TO.N,Net-(U3-3)*%
X121810000Y-86250000D03*
D14*
%TO.P,R3,2*%
%TO.N,Net-(D2-A)*%
X114190000Y-86250000D03*
%TD*%
D17*
%TO.P,D7,1,K*%
%TO.N,Net-(BT1--)*%
X107225000Y-68500000D03*
D18*
%TO.P,D7,2,A*%
%TO.N,Net-(D7-A)*%
X109765000Y-68500000D03*
%TD*%
D19*
%TO.P,C2,1*%
%TO.N,Net-(U2-CV)*%
X130500000Y-83000000D03*
%TO.P,C2,2*%
%TO.N,Net-(BT1--)*%
X135500000Y-83000000D03*
%TD*%
D20*
%TO.P,R11,1*%
%TO.N,Net-(BT1-+)*%
X142200000Y-64200000D03*
%TO.P,R11,2*%
%TO.N,Net-(U2-Q)*%
X139660000Y-61660000D03*
%TO.P,R11,3*%
%TO.N,N/C*%
X142200000Y-59120000D03*
%TD*%
D13*
%TO.P,R1,1*%
%TO.N,Net-(U3-1)*%
X121810000Y-89400000D03*
D14*
%TO.P,R1,2*%
%TO.N,Net-(D8-A)*%
X114190000Y-89400000D03*
%TD*%
D17*
%TO.P,D9,1,K*%
%TO.N,Net-(BT1--)*%
X107225000Y-84000000D03*
D18*
%TO.P,D9,2,A*%
%TO.N,Net-(D9-A)*%
X109765000Y-84000000D03*
%TD*%
D17*
%TO.P,D4,1,K*%
%TO.N,Net-(BT1--)*%
X98960000Y-84000000D03*
D18*
%TO.P,D4,2,A*%
%TO.N,Net-(D4-A)*%
X101500000Y-84000000D03*
%TD*%
D17*
%TO.P,D1,1,K*%
%TO.N,Net-(BT1--)*%
X98960000Y-60800000D03*
D18*
%TO.P,D1,2,A*%
%TO.N,Net-(D1-A)*%
X101500000Y-60800000D03*
%TD*%
D13*
%TO.P,R4,1*%
%TO.N,Net-(U3-4)*%
X121810000Y-83100000D03*
D14*
%TO.P,R4,2*%
%TO.N,Net-(D3-A)*%
X114190000Y-83100000D03*
%TD*%
D17*
%TO.P,D2,1,K*%
%TO.N,Net-(BT1--)*%
X98960000Y-68500000D03*
D18*
%TO.P,D2,2,A*%
%TO.N,Net-(D2-A)*%
X101500000Y-68500000D03*
%TD*%
D17*
%TO.P,D3,1,K*%
%TO.N,Net-(BT1--)*%
X98960000Y-76000000D03*
D18*
%TO.P,D3,2,A*%
%TO.N,Net-(D3-A)*%
X101500000Y-76000000D03*
%TD*%
D15*
%TO.P,U2,1,GND*%
%TO.N,unconnected-(U2-GND-Pad1)*%
X125200000Y-88200000D03*
D21*
%TO.P,U2,2,TR*%
%TO.N,Net-(BT1-+)*%
X125200000Y-90740000D03*
%TO.P,U2,3,Q*%
%TO.N,Net-(U2-Q)*%
X125200000Y-93280000D03*
%TO.P,U2,4,R*%
%TO.N,Net-(BT1--)*%
X125200000Y-95820000D03*
%TO.P,U2,5,CV*%
%TO.N,Net-(U2-CV)*%
X132820000Y-95820000D03*
%TO.P,U2,6,THR*%
%TO.N,Net-(BT1--)*%
X132820000Y-93280000D03*
%TO.P,U2,7,DIS*%
%TO.N,Net-(U2-DIS)*%
X132820000Y-90740000D03*
%TO.P,U2,8,VCC*%
%TO.N,Net-(BT1-+)*%
X132820000Y-88200000D03*
%TD*%
D17*
%TO.P,D6,1,K*%
%TO.N,Net-(BT1--)*%
X107225000Y-60800000D03*
D18*
%TO.P,D6,2,A*%
%TO.N,Net-(D6-A)*%
X109765000Y-60800000D03*
%TD*%
D17*
%TO.P,D5,1,K*%
%TO.N,Net-(BT1--)*%
X98960000Y-92500000D03*
D18*
%TO.P,D5,2,A*%
%TO.N,Net-(D5-A)*%
X101500000Y-92500000D03*
%TD*%
D13*
%TO.P,RV1,1,1*%
%TO.N,Net-(C1-Pad1)*%
X145500000Y-75310000D03*
D14*
%TO.P,RV1,2,2*%
%TO.N,Net-(U2-DIS)*%
X145500000Y-67690000D03*
%TD*%
D22*
%TO.P,U3,1,5*%
%TO.N,Net-(U3-5)*%
X126500000Y-58460000D03*
D23*
%TO.P,U3,2,1*%
%TO.N,Net-(U3-1)*%
X126500000Y-61000000D03*
%TO.P,U3,3,O*%
%TO.N,unconnected-(U3-O-Pad3)*%
X126500000Y-63540000D03*
%TO.P,U3,4,2*%
%TO.N,Net-(U3-2)*%
X126500000Y-66080000D03*
%TO.P,U3,5,6*%
%TO.N,Net-(U3-6)*%
X126500000Y-68620000D03*
%TO.P,U3,6,7*%
%TO.N,Net-(U3-7)*%
X126500000Y-71160000D03*
%TO.P,U3,7,3*%
%TO.N,Net-(U3-3)*%
X126500000Y-73700000D03*
%TO.P,U3,8,VSS*%
%TO.N,Net-(BT1--)*%
X126500000Y-76240000D03*
%TO.P,U3,9,8*%
%TO.N,Net-(U3-8)*%
X134120000Y-76240000D03*
%TO.P,U3,10,4*%
%TO.N,Net-(U3-4)*%
X134120000Y-73700000D03*
%TO.P,U3,11,9*%
%TO.N,Net-(U3-9)*%
X134120000Y-71160000D03*
%TO.P,U3,12,CARRY_OUT*%
%TO.N,unconnected-(U3-CARRY_OUT-Pad12)*%
X134120000Y-68620000D03*
%TO.P,U3,13,CLOCK_INHIBIT*%
%TO.N,Net-(BT1--)*%
X134120000Y-66080000D03*
%TO.P,U3,14,CLOCK*%
%TO.N,Net-(U2-Q)*%
X134120000Y-63540000D03*
%TO.P,U3,15,RESET*%
%TO.N,Net-(BT1--)*%
X134120000Y-61000000D03*
%TO.P,U3,16,VDD*%
%TO.N,Net-(BT1-+)*%
X134120000Y-58460000D03*
%TD*%
D14*
%TO.P,R2,2*%
%TO.N,Net-(D1-A)*%
X114910000Y-59000000D03*
D13*
%TO.P,R2,1*%
%TO.N,Net-(U3-2)*%
X119990000Y-59000000D03*
%TD*%
D17*
%TO.P,D8,1,K*%
%TO.N,Net-(BT1--)*%
X107225000Y-76000000D03*
D18*
%TO.P,D8,2,A*%
%TO.N,Net-(D8-A)*%
X109765000Y-76000000D03*
%TD*%
D13*
%TO.P,R7,1*%
%TO.N,Net-(U3-7)*%
X121810000Y-73650000D03*
D14*
%TO.P,R7,2*%
%TO.N,Net-(D6-A)*%
X114190000Y-73650000D03*
%TD*%
D13*
%TO.P,R9,1*%
%TO.N,Net-(U3-9)*%
X121810000Y-67350000D03*
D14*
%TO.P,R9,2*%
%TO.N,Net-(D9-A)*%
X114190000Y-67350000D03*
%TD*%
D17*
%TO.P,D10,1,K*%
%TO.N,Net-(BT1--)*%
X107225000Y-92500000D03*
D18*
%TO.P,D10,2,A*%
%TO.N,Net-(D10-A)*%
X109765000Y-92500000D03*
%TD*%
D24*
%TO.N,Net-(BT1-+)*%
X132364365Y-91840000D02*
X137660000Y-91840000D01*
X131720000Y-91195635D02*
X132364365Y-91840000D01*
X132820000Y-88200000D02*
X131720000Y-89300000D01*
X131720000Y-89300000D02*
X131720000Y-91195635D01*
X137660000Y-91840000D02*
X141000000Y-88500000D01*
%TO.N,Net-(C1-Pad1)*%
X145500000Y-75310000D02*
X145500000Y-77000000D01*
X145500000Y-77000000D02*
X142000000Y-80500000D01*
%TO.N,Net-(U2-CV)*%
X130500000Y-93500000D02*
X130500000Y-83000000D01*
X132820000Y-95820000D02*
X130500000Y-93500000D01*
%TO.N,Net-(D1-A)*%
X103300000Y-59000000D02*
X114910000Y-59000000D01*
X101500000Y-60800000D02*
X103300000Y-59000000D01*
%TO.N,Net-(D2-A)*%
X101500000Y-73560000D02*
X114190000Y-86250000D01*
X101500000Y-68500000D02*
X101500000Y-73560000D01*
%TO.N,Net-(D3-A)*%
X100300000Y-74800000D02*
X100300000Y-68002943D01*
X112100000Y-83100000D02*
X114190000Y-83100000D01*
X101997057Y-67300000D02*
X102700000Y-68002943D01*
X102700000Y-73700000D02*
X112100000Y-83100000D01*
X100300000Y-68002943D02*
X101002943Y-67300000D01*
X102700000Y-68002943D02*
X102700000Y-73700000D01*
X101500000Y-76000000D02*
X100300000Y-74800000D01*
X101002943Y-67300000D02*
X101997057Y-67300000D01*
%TO.N,Net-(D4-A)*%
X115190000Y-80950000D02*
X114190000Y-79950000D01*
X101500000Y-84000000D02*
X104750000Y-87250000D01*
X114604214Y-87250000D02*
X115190000Y-86664214D01*
X104750000Y-87250000D02*
X114604214Y-87250000D01*
X115190000Y-86664214D02*
X115190000Y-80950000D01*
%TO.N,Net-(D5-A)*%
X114769900Y-87650000D02*
X115590000Y-86829900D01*
X101500000Y-92500000D02*
X106350000Y-87650000D01*
X106350000Y-87650000D02*
X114769900Y-87650000D01*
X115590000Y-79935786D02*
X113654214Y-78000000D01*
X113654214Y-78000000D02*
X113500000Y-78000000D01*
X115590000Y-86829900D02*
X115590000Y-79935786D01*
X114190000Y-77310000D02*
X114190000Y-76800000D01*
X113500000Y-78000000D02*
X114190000Y-77310000D01*
%TO.N,Net-(D10-A)*%
X112942208Y-88050000D02*
X114935586Y-88050000D01*
X109765000Y-91227208D02*
X112942208Y-88050000D01*
X115990000Y-86995586D02*
X115990000Y-66000000D01*
X114935586Y-88050000D02*
X115990000Y-86995586D01*
X115990000Y-66000000D02*
X114190000Y-64200000D01*
X109765000Y-92500000D02*
X109765000Y-91227208D01*
%TO.N,Net-(U3-1)*%
X119610000Y-64890000D02*
X123500000Y-61000000D01*
X119610000Y-87200000D02*
X119610000Y-64890000D01*
X123500000Y-61000000D02*
X126500000Y-61000000D01*
X121810000Y-89400000D02*
X119610000Y-87200000D01*
%TO.N,Net-(U3-2)*%
X128500000Y-64080000D02*
X126500000Y-66080000D01*
X121630000Y-57360000D02*
X128000000Y-57360000D01*
X128000000Y-57360000D02*
X128500000Y-57860000D01*
X119990000Y-59000000D02*
X121630000Y-57360000D01*
X128500000Y-57860000D02*
X128500000Y-64080000D01*
%TO.N,Net-(U3-3)*%
X127600000Y-72600000D02*
X126500000Y-73700000D01*
X135141321Y-77740000D02*
X136020000Y-76861321D01*
X130320000Y-77740000D02*
X135141321Y-77740000D01*
X136020000Y-73644365D02*
X134975635Y-72600000D01*
X134975635Y-72600000D02*
X127600000Y-72600000D01*
X136020000Y-76861321D02*
X136020000Y-73644365D01*
X121810000Y-86250000D02*
X130320000Y-77740000D01*
%TO.N,Net-(U3-4)*%
X121810000Y-83100000D02*
X127570000Y-77340000D01*
X134975635Y-77340000D02*
X135620000Y-76695635D01*
X127570000Y-77340000D02*
X134975635Y-77340000D01*
X135620000Y-75200000D02*
X134120000Y-73700000D01*
X135620000Y-76695635D02*
X135620000Y-75200000D01*
%TO.N,Net-(U3-5)*%
X128000000Y-59960000D02*
X126500000Y-58460000D01*
X127355635Y-62100000D02*
X128000000Y-61455635D01*
X128000000Y-61455635D02*
X128000000Y-59960000D01*
X121867918Y-65312182D02*
X122687818Y-65312182D01*
X120010000Y-78150000D02*
X120010000Y-67170100D01*
X125900000Y-62100000D02*
X127355635Y-62100000D01*
X121810000Y-79950000D02*
X120010000Y-78150000D01*
X120010000Y-67170100D02*
X121867918Y-65312182D01*
X122687818Y-65312182D02*
X125900000Y-62100000D01*
%TO.N,Net-(U3-6)*%
X124230000Y-66350000D02*
X126500000Y-68620000D01*
X120410000Y-67335786D02*
X121395786Y-66350000D01*
X120410000Y-75400000D02*
X120410000Y-67335786D01*
X121810000Y-76800000D02*
X120410000Y-75400000D01*
X121395786Y-66350000D02*
X124230000Y-66350000D01*
%TO.N,Net-(U3-7)*%
X122500000Y-69500000D02*
X124160000Y-71160000D01*
X120810000Y-70085786D02*
X121395786Y-69500000D01*
X121395786Y-69500000D02*
X122500000Y-69500000D01*
X121810000Y-73650000D02*
X120810000Y-72650000D01*
X124160000Y-71160000D02*
X126500000Y-71160000D01*
X120810000Y-72650000D02*
X120810000Y-70085786D01*
%TO.N,Net-(U3-8)*%
X132880000Y-75000000D02*
X134120000Y-76240000D01*
X121810000Y-70965635D02*
X125844365Y-75000000D01*
X125844365Y-75000000D02*
X132880000Y-75000000D01*
X121810000Y-70500000D02*
X121810000Y-70965635D01*
%TO.N,Net-(U3-9)*%
X121810000Y-67350000D02*
X124180000Y-69720000D01*
X132680000Y-69720000D02*
X134120000Y-71160000D01*
X124180000Y-69720000D02*
X132680000Y-69720000D01*
%TO.N,Net-(U2-Q)*%
X134120000Y-63540000D02*
X137780000Y-63540000D01*
X137780000Y-63540000D02*
X139660000Y-61660000D01*
%TO.N,Net-(U2-DIS)*%
X146500000Y-80500000D02*
X146500000Y-68690000D01*
X139800000Y-87200000D02*
X146500000Y-80500000D01*
X136360000Y-87200000D02*
X139800000Y-87200000D01*
X146500000Y-68690000D02*
X145500000Y-67690000D01*
X132820000Y-90740000D02*
X136360000Y-87200000D01*
%TD*%
M02*
